<?xml version="1.0" standalone="no"?>
<!DOCTYPE svg PUBLIC "-//W3C//DTD SVG 1.1//EN" "http://www.w3.org/Graphics/SVG/1.1/DTD/svg11.dtd" >
<svg xmlns="http://www.w3.org/2000/svg">
<metadata>
Created by FontForge 20120731 at Fri Jul  1 16:32:55 2016
 By admin
</metadata>
<defs>
<font id="iconfont" horiz-adv-x="1024" >
  <font-face 
    font-family="iconfont"
    font-weight="500"
    font-stretch="normal"
    units-per-em="1024"
    panose-1="2 0 6 3 0 0 0 0 0 0"
    ascent="896"
    descent="-128"
    x-height="792"
    bbox="0 -212 2099 896"
    underline-thickness="50"
    underline-position="-100"
    unicode-range="U+0078-E624"
  />
<missing-glyph horiz-adv-x="374" 
d="M34 0v682h272v-682h-272zM68 34h204v614h-204v-614z" />
    <glyph glyph-name=".notdef" horiz-adv-x="374" 
d="M34 0v682h272v-682h-272zM68 34h204v614h-204v-614z" />
    <glyph glyph-name=".null" horiz-adv-x="0" 
 />
    <glyph glyph-name="nonmarkingreturn" horiz-adv-x="341" 
 />
    <glyph glyph-name="x" unicode="x" horiz-adv-x="1001" 
d="M281 543q-27 -1 -53 -1h-83q-18 0 -36.5 -6t-32.5 -18.5t-23 -32t-9 -45.5v-76h912v41q0 16 -0.5 30t-0.5 18q0 13 -5 29t-17 29.5t-31.5 22.5t-49.5 9h-133v-97h-438v97zM955 310v-52q0 -23 0.5 -52t0.5 -58t-10.5 -47.5t-26 -30t-33 -16t-31.5 -4.5q-14 -1 -29.5 -0.5
t-29.5 0.5h-32l-45 128h-439l-44 -128h-29h-34q-20 0 -45 1q-25 0 -41 9.5t-25.5 23t-13.5 29.5t-4 30v167h911zM163 247q-12 0 -21 -8.5t-9 -21.5t9 -21.5t21 -8.5q13 0 22 8.5t9 21.5t-9 21.5t-22 8.5zM316 123q-8 -26 -14 -48q-5 -19 -10.5 -37t-7.5 -25t-3 -15t1 -14.5
t9.5 -10.5t21.5 -4h37h67h81h80h64h36q23 0 34 12t2 38q-5 13 -9.5 30.5t-9.5 34.5q-5 19 -11 39h-368zM336 498v228q0 11 2.5 23t10 21.5t20.5 15.5t34 6h188q31 0 51.5 -14.5t20.5 -52.5v-227h-327z" />
    <glyph glyph-name="uniE600" unicode="&#xe600;" horiz-adv-x="1707" 
d="M769 -91l-734 772q-35 37 -35 89t35 89t84.5 37t84.5 -37l649 -683l650 683q35 37 84.5 37t84.5 -37t35 -89t-35 -89l-734 -772q-35 -37 -84.5 -37t-84.5 37z" />
    <glyph glyph-name="uniE601" unicode="&#xe601;" 
d="M511 895q104 0 199 -40.5t163.5 -109t109 -163.5t40.5 -199q0 -157 -88 -287l42 -148q8 -29 -7 -49q-14 -19 -40 -19q-8 0 -17 3l-165 47q-108 -56 -229 -58h-8q-103 0 -198 40.5t-163.5 109t-109 163.5t-40.5 198.5t40.5 198.5t109 163.5t163.5 109t198 40.5zM511 -62
q116 0 217 56q6 4 13 4v1h3q5 0 9 -2l154 -44l-40 140q-5 16 5 29q85 117 85 262q0 90 -35.5 172.5t-95 142t-142 95t-173 35.5t-173 -35.5t-142 -95t-95 -142t-35.5 -173t35.5 -173t95 -142t142 -95t172.5 -35.5zM314 492q0 -18 12.5 -30t30 -12t29.5 12t12 30
q0 47 33.5 80t80 33t80 -33t33.5 -80q0 -23 -5 -40t-17.5 -30.5t-22 -20.5t-29.5 -19q-18 -11 -28 -18.5t-25 -21.5t-22 -32t-7 -40v-19q0 -18 12.5 -30.5t30 -12.5t30 12.5t12.5 30.5v19q0 9 8 16.5t33 23.5q19 12 30 19t29.5 24t28.5 34.5t18 45t8 59.5q0 82 -58 140
t-139.5 58t-139.5 -58t-58 -140zM469 129q0 -18 12.5 -30.5t30 -12.5t30 12.5t12.5 30t-12.5 30t-30 12.5t-30 -12.5t-12.5 -29.5z" />
    <glyph glyph-name="uniE602" unicode="&#xe602;" horiz-adv-x="1707" 
d="M769 859l-734 -772q-35 -37 -35 -89t35 -89t84.5 -37t84.5 37l649 683l650 -683q35 -37 84.5 -37t84.5 37t35 89t-35 89l-734 772q-35 37 -84.5 37t-84.5 -37z" />
    <glyph glyph-name="uniE603" unicode="&#xe603;" horiz-adv-x="1332" 
d="M154 435l-154 -153l410 -410l921 870l-153 154l-768 -717z" />
    <glyph glyph-name="uniE604" unicode="&#xe604;" 
d="M512 -25q111 0 205 55t149 149t55 205t-55 205t-149 149t-205 55t-205 -54.5t-149 -149t-55 -205.5t55 -205t149 -149t205 -55zM512 -66q-186 0 -318 132t-132 318t132 318t318 132t318 -132t132 -318t-132 -318t-318 -132v0z" />
    <glyph glyph-name="uniE605" unicode="&#xe605;" 
d="M514 834q-91 0 -174 -35.5t-143 -95.5t-95.5 -143t-35.5 -174.5t35.5 -174.5t95.5 -143t143 -95.5t174 -35.5t174 35.5t143 95.5t95.5 143t35.5 174.5t-35.5 174.5t-95.5 143t-143 95.5t-174 35.5zM771 502l-290 -290q-10 -10 -24 -12t-25 5q-5 3 -8 7l-167 167
q-12 12 -12 28.5t12 28.5t28.5 12t28.5 -12l138 -138l261 261q12 12 29 12t29 -12t12 -28.5t-12 -28.5z" />
    <glyph glyph-name="uniE606" unicode="&#xe606;" 
d="M512 -128q-104 0 -199 40.5t-163.5 109t-109 163.5t-40.5 199t40.5 199t109 163.5t163.5 109t199 40.5t199 -40.5t163.5 -109t109 -163.5t40.5 -199t-40.5 -199t-109 -163.5t-163.5 -109t-199 -40.5zM512 853q-95 0 -182 -37.5t-149.5 -100t-100 -149.5t-37.5 -182
t37.5 -182t100 -149.5t149.5 -100t182 -37.5t182 37.5t149.5 100t100 149.5t37.5 182t-37.5 182t-100 149.5t-149.5 100t-182 37.5zM512 90zM247 443q-35 0 -64 -1q-29 0 -45 -2v53q18 -2 37 -4q20 -2 45 -2q22 0 44 2q21 2 38 4q-4 -16 -6 -41q-1 -25 -1 -58v-234
q16 -3 33.5 -9t44.5 -20q151 -71 530 -25q-13 -16 -18 -30.5t-5 -31.5q-125 -6 -212 -5t-149 9q-62 7 -104 20t-76 32q-20 10 -36 14.5t-33 -1.5t-38 -22q-23 -18 -55 -48q-20 30 -38 45q46 30 71 46t37 22v287zM286 589q-10 13 -25 28q-16 16 -35 31.5t-39 29.5t-39 25
l33 31q19 -11 39 -25t40 -30q19 -15 36 -29l28 -26zM597 714q-18 -24 -51 -55q-33 -30 -76 -63q25 -4 55 -4q30 -1 79 -1h48q20 0 34 1q20 1 27 1q12 1 24 3v-48q-12 2 -24 3q-7 0 -27 1q-14 1 -34 1h-48q-52 0 -81 -1q-31 0 -55 -4v45q-25 -19 -51 -37.5t-53 -34.5
q-10 16 -19.5 24.5t-28.5 16.5q33 9 71 29.5t76 52.5q52 45 82 82t34 63q16 -9 30 -15q15 -7 26 -9q15 -3 13.5 -11.5t-14.5 -10.5q-6 -2 -12 -5q19 -19 46.5 -40.5t61.5 -44.5q11 -8 31 -18t44 -20q23 -10 48 -19q23 -9 44 -14q-19 -10 -29.5 -22t-17.5 -33q-18 10 -35 20
t-32 21q-16 11 -35 24q-20 13 -43 29q-29 19 -58.5 44.5t-49.5 48.5zM420 162h-49q3 30 4 49q1 20 1 44v159v53q-1 26 -2 40q15 -3 42 -4q29 -1 74 -1q49 0 76 1t41 4q-1 -32 -2 -47q-1 -18 -1 -43v-198q0 -22 -4.5 -35.5t-16.5 -20.5t-33 -9.5t-55 -2.5q4 17 -1 29.5
t-20 25.5q27 -5 44 -6.5t26.5 1.5t13.5 10t4 17v56h-142v-122zM562 407v60h-142v-60h142zM420 376v-58h142v58h-142zM714 446q-9 -6 -9 -23v-107v-43q1 -17 5 -40h-53q3 23 5 45q1 23 1 38v62q0 31 -2 52q-1 19 -5 37q17 -4 28.5 -5t25.5 0q10 1 11.5 -4.5t-7.5 -11.5z
M830 490q-11 -6 -11 -23v-266q0 -21 -4 -34q-3 -13 -14.5 -20t-34.5 -10t-62 -4q2 19 -2.5 30.5t-21.5 26.5q29 -5 47.5 -7t29.5 1q10 3 14 11t4 21v161q0 45 -2 82.5t-4 54.5q16 -4 27 -6q11 -1 27 0q11 1 13.5 -6t-6.5 -12z" />
    <glyph glyph-name="uniE607" unicode="&#xe607;" 
d="M312 377q24 -18 49 -30q13 8 24 19q12 11 21 22h-100q-9 -13 -20 -25t-27 -24q-4 5 -8 8.5t-10 4.5q10 4 21.5 13.5t22.5 21.5q10 11 17.5 23.5t10.5 23.5q9 -7 16 -9q6 -2 6 -4t-5 -4q-2 -1 -5 -5l-9 -10h62q19 0 36.5 1.5t26.5 3.5q-17 -24 -33 -41q-17 -17 -31 -26
q24 -11 54 -18q28 -7 65 -10q-5 -5 -7 -10t-3 -10q-25 6 -41 10q-19 4 -33 8q-15 4 -27 9q-13 5 -24 11q-30 -16 -62 -26q-33 -10 -68 -18q-2 11 -12 19q36 5 68 13t58 20q-12 7 -20 12q-11 7 -23 16zM369 449q40 0 67 1q26 1 39 2l-2 -14v-15v-15q1 -8 1 -12h-19v39h-199
v-38h-19q1 7 2 13v15v15q-1 7 -2 12q9 -1 17 -1q10 -1 24 -1h31q20 -1 42 -1q-7 12 -22 25l17 11q7 -8 13 -16q5 -8 10 -20zM441 209q-1 7 -1.5 12.5t-0.5 13.5v44v10q1 3 1 6h-12h-14h-19h-30h-31h-21h-7h-8h-14q1 -4 1 -7v-9v-46v-14q0 -6 -1 -13h19v17h118v-14h20z
M303 238v41h118v-41h-118zM620 468q-3 -1 -8 -1h-9h-12h-25q-13 1 -21 1q1 -6 1 -15v-23v-90q0 -26 -2 -45q-1 -19 -4.5 -32.5t-8.5 -24t-12 -20.5q7 -1 12.5 -2.5t9.5 -5.5q12 24 17 52t6 58h46v-65q0 -6 -1.5 -10.5t-6 -6.5t-11.5 -2q-9 1 -21 2q4 -6 6 -11q2 -6 3 -12
q15 1 25 3q9 2 15 6q5 4 7 9.5t2 13.5v183v24q0 7 1 14h-9zM610 334h-46v54h46v-54zM610 402h-46v50h46v-50zM766 251q-13 5 -24 14q6 9 11 19q5 9 9 21t8 26q4 16 7 31q-7 -1 -18 -1q-12 -1 -24 -1h-64v89h76l-3 -34q-1 -6 -3 -10t-6.5 -5.5t-13.5 -0.5t-23 3
q5 -6 6.5 -11.5t1.5 -11.5q16 1 26.5 2t16.5 5q6 3 8.5 9t3.5 15l8 56q-16 -1 -27 -1q-14 -1 -36 -1h-19q-7 0 -13 1h-11q-6 0 -11 1q1 -5 1 -14v-18v-148v-23v-9v-9q0 -9 -1 -17v-9q0 -6 -1 -10h20v20q4 -3 8 -5q3 -3 6 -7q14 8 25.5 17t20.5 18q11 -9 23 -17q13 -8 30 -15
q2 5 5 11q3 5 7 10q-17 4 -30 10zM671 233v112h11q7 -27 16 -47q8 -20 20 -34q-18 -18 -47 -31zM729 277q-10 13 -19 30q-8 18 -12 39h56q-1 -18 -7 -36t-18 -33zM1021 350q0 54 -29.5 98t-77.5 64q-18 67 -53 128t-85.5 112t-120.5 82t-148 32q-12 1 -20 0q-77 -2 -144 -31
t-114 -77t-76.5 -111t-35.5 -132q-51 -19 -83.5 -64.5t-30.5 -100.5q1 -28 4.5 -51t8 -40t13 -30t16 -22t20.5 -15t22.5 -9.5t26.5 -5t27.5 -2t30.5 -1.5v331q1 53 26.5 106t69 95.5t106.5 69.5t133 27q69 0 128 -24.5t100 -66.5t69.5 -88.5t47.5 -99.5v-340
q-6 -15 -23.5 -33.5t-57.5 -57.5q-59 -56 -147 -87q-7 -2 -11.5 -10t-2.5 -16.5t9.5 -13t15.5 -1.5q10 4 27 10.5t59.5 31t73.5 53.5q30 29 54 59.5t32 43.5t9 16q6 2 22 5.5t21.5 5t18 6t17.5 8t14.5 11t13.5 15t10 19.5t8 26.5t4 33t2 41.5zM493 14q-14 -2 -24.5 -10.5
t-10.5 -17.5l3 -43q1 -10 12.5 -16t26.5 -5l61 6q14 1 25 9.5t10 18.5l-3 42q-1 9 -12.5 15.5t-25.5 5.5z" />
    <glyph glyph-name="uniE608" unicode="&#xe608;" horiz-adv-x="1118" 
d="M271 805h232q23 0 23 25v40q0 25 -23 25h-232q-24 0 -24 -25v-32q0 -13 6.5 -23t17.5 -10zM558.5 84q101.5 0 170.5 70t69 173.5t-69 173t-170.5 69.5t-170.5 -69.5t-69 -173t69 -173.5t170.5 -70zM558 489q66 0 113 -47.5t47 -114t-47 -114.5t-112.5 -48t-112.5 48
t-47 114q0 69 44.5 115.5t114.5 46.5zM989 781h-439q-12 0 -21.5 -11.5t-9.5 -28.5q0 -13 9.5 -23t21.5 -10h439q24 0 40 -16t16 -40v-649q0 -24 -16 -40t-40 -16h-861q-24 0 -40 16t-16 40v649q0 24 16 40t40 16h119q12 0 22 10t10 22.5t-10 22.5t-22 10h-119
q-54 6 -91 -30t-37 -91v-649q0 -54 37 -91.5t91 -37.5h861q54 0 91 37.5t37 91.5v649q0 54 -37 91.5t-91 37.5zM933 668q-23 0 -39.5 -20t-16.5 -45h120q0 24 -20 44.5t-44 20.5z" />
    <glyph glyph-name="uniE609" unicode="&#xe609;" 
d="M512 -94q97 0 185.5 38t152.5 102t102 152.5t38 185.5t-38 185.5t-102 152.5t-152.5 101.5t-185.5 37.5t-185.5 -37.5t-152.5 -101.5t-101.5 -152.5t-37.5 -185.5t37.5 -185.5t101.5 -152.5t152.5 -102t185.5 -38zM512 -26q-111 0 -205.5 55t-149 149.5t-54.5 205.5
t54.5 205.5t149 149t205.5 54.5t205.5 -54.5t149.5 -149t55 -205.5t-55 -205.5t-149.5 -149.5t-205.5 -55zM452 672h98v-97h-98v97zM453 519h96v-442h-96v442z" />
    <glyph glyph-name="uniE60A" unicode="&#xe60a;" horiz-adv-x="1220" 
d="M882 643q0 15 -10.5 25.5t-26.5 10.5h-645q-15 0 -26 -10.5t-11 -25.5t11 -26t26 -11h645q16 0 26.5 11t10.5 26zM709 426q0 15 -10.5 26t-25.5 11h-473q-15 0 -26 -11t-11 -26t11 -25.5t26 -10.5h473q15 0 25.5 10.5t10.5 25.5zM200 246q-15 0 -26 -10.5t-11 -25.5
t11 -25.5t26 -10.5h228q15 0 26 10.5t11 25.5t-11 25.5t-26 10.5h-228zM958 65q0 -30 -22 -51t-52 -21h-737q-30 0 -51.5 21t-21.5 51v686q0 30 21.5 51t51.5 21h37q1 0 3 1h657q2 -1 3 -1h37q30 0 52 -21t22 -51v-29l73 8v21q0 60 -43 102.5t-104 42.5h-737
q-61 0 -104 -42.5t-43 -102.5v-686q0 -60 43 -102.5t104 -42.5h737q61 0 104 42.5t43 102.5v211l-73 -9v-202zM1179 583l-88 86q-10 9 -23.5 9t-22.5 -9l-52 -51q-1 0 -1 -1l134 -131h1l52 51q10 10 10 23t-10 23zM642 275v-131h137l318 312l-136 133z" />
    <glyph glyph-name="uniE60B" unicode="&#xe60b;" 
d="M872.5 741q-71.5 72 -163.5 110.5t-193.5 38.5t-194 -38t-165 -109.5t-111.5 -163.5t-39.5 -193.5t37 -194t109 -164.5t163.5 -110.5t193.5 -38.5t194 38t165 109.5t111.5 163.5t39.5 193.5t-37 194t-109 164.5zM809.5 84q-60.5 -60 -138 -92t-162.5 -32t-162 32.5
t-137 92.5t-91.5 137.5t-30.5 162.5t33.5 162t93 137t138 92t162.5 32t162 -32.5t137 -92.5t91.5 -137.5t30.5 -162.5t-33.5 -162t-93 -137zM647 596q-55 49 -134 50q-75 0 -129 -48q-50 -43 -54 -108l84 -12q8 38 40 65q26 21 63 21q38 -1 61 -21.5t22 -48.5q0 -20 -13 -38
q-8 -10 -51 -44.5t-57.5 -62.5t-14.5 -71v-23l89 -1q-1 41 6.5 56.5t38.5 40.5q61 50 79.5 78.5t18.5 60.5q0 62 -49 106zM559 123h-98l1 98l98 -1z" />
    <glyph glyph-name="uniE60C" unicode="&#xe60c;" 
d="M512 -112q-234 0 -341 84t-107 260q0 143 97.5 275t234.5 180h232q137 -48 234.5 -180t97.5 -275q0 -176 -107 -260t-341 -84zM636 268q16 0 27 11.5t11 27t-11 26.5t-27 11v1h-77v1v1l90 92q18 20 -7 45q-12 11 -27.5 13t-24.5 -8l-77 -82l-84 83q-8 8 -21.5 6
t-24.5 -13.5t-13 -25t6 -20.5l85 -86q-2 -3 -3 -6h-70v-1q-16 0 -27 -11t-11 -26.5t11 -27t27 -11.5v0h76v-38h-76v0q-16 0 -27 -11t-11 -26.5t11 -27t27 -11.5v0h76v-38h1q-1 -5 -1 -9q0 -20 14 -34t34 -14t34 14t14 34q0 4 -1 9v38h77q16 0 27 11.5t11 27t-11 26.5t-27 11
h-77v38h77zM693 839l-8 -10v-1l-68 -84h-229l-68 84v1l-1 1l-7 9l1 3q-1 5 -1 7q0 19 18 26l1 2q94 19 171 19q37 0 79.5 -4.5t67.5 -9.5l25 -5l1 -2q18 -7 18 -26q0 -2 -1 -7z" />
    <glyph glyph-name="uniE60D" unicode="&#xe60d;" 
d="M512 896q-104 0 -198.5 -40.5t-163.5 -109.5t-109.5 -163.5t-40.5 -198t40.5 -198t109.5 -163.5t163.5 -109.5t198 -40.5t198 40.5t163.5 109.5t109.5 163.5t40.5 198t-40.5 198t-109.5 163.5t-163.5 109.5t-197.5 40.5zM729 78q-35 8 -66 18.5t-77.5 28.5t-61.5 23
q-12 6 -38 6q-93 5 -158.5 74.5t-65.5 187.5q0 122 68 198.5t182 76.5q77 0 133 -36.5t82.5 -95t26.5 -130.5q0 -82 -35 -143t-86 -87q21 -7 64.5 -16.5t63.5 -15.5zM512 602q-57 0 -92.5 -49.5t-35.5 -123.5q0 -75 33.5 -123.5t94.5 -48.5q56 0 91.5 49.5t35.5 122.5
q-5 72 -39 122.5t-88 50.5z" />
    <glyph glyph-name="uniE60E" unicode="&#xe60e;" 
d="M797 333l-463 -440q-22 -21 -53.5 -21t-53.5 21t-22 50.5t22 50.5l410 390l-410 390q-22 21 -22 50.5t22 50.5t53.5 21t53.5 -21l463 -440q22 -21 22 -51t-22 -51z" />
    <glyph glyph-name="uniE60F" unicode="&#xe60f;" 
d="M227 333l463 -440q22 -21 53.5 -21t53.5 21t22 50.5t-22 50.5l-410 390l410 390q22 21 22 50.5t-22 50.5t-53.5 21t-53.5 -21l-463 -440q-22 -21 -22 -51t22 -51z" />
    <glyph glyph-name="uniE610" unicode="&#xe610;" 
d="M950 -116h-701q-30 0 -51.5 21t-21.5 51v693q0 30 21.5 51t51.5 21h701q31 0 52 -21t21 -51v-693q0 -30 -21 -51t-52 -21zM953 591q0 25 -18 42.5t-43 17.5h-584q-25 0 -43 -17.5t-18 -42.5v-577q0 -25 18 -42.5t43 -17.5h584q25 0 43 17.5t18 42.5v577zM752 278l-100 98
q1 -3 1 -4v-261q0 -15 -10.5 -25t-25 -10t-25 10t-10.5 25v261q0 2 1 5l-101 -99q-10 -11 -24.5 -11t-24.5 10.5t-10 24.5t10 24l156 155q1 0 1.5 1.5t1.5 2.5q10 10 25 10t26 -10q0 -1 1 -3l1 -1l157 -155q10 -10 10 -24t-10.5 -24.5t-25 -10.5t-24.5 11zM706 826h-575
q-25 0 -42.5 -18t-17.5 -43v-550q0 -14 -10.5 -24.5t-25 -10.5t-25 10.5t-10.5 24.5v608q0 30 21.5 51t51.5 21h633q14 0 24.5 -10t10.5 -24.5t-10.5 -24.5t-24.5 -10z" />
    <glyph glyph-name="uniE611" unicode="&#xe611;" horiz-adv-x="1085" 
d="M503 267h78q16 0 27.5 14t11.5 35t-11.5 35t-27.5 14h-78q-16 0 -27 -14t-11 -35t11 -35t27 -14zM503 115h78q16 0 27.5 14.5t11.5 35t-11.5 35t-27.5 14.5h-78q-16 0 -27 -14.5t-11 -35t11 -35t27 -14.5zM929 820h-155v38q0 16 -11 27t-27.5 11t-27.5 -11t-11 -27v-38
h-310v38q0 16 -11 27t-27.5 11t-27.5 -11t-11 -27v-38h-155q-64 0 -109.5 -44.5t-45.5 -106.5v-607q0 -63 45.5 -107.5t109.5 -44.5h774q64 0 109.5 44.5t45.5 107.5v607q0 62 -45.5 106.5t-109.5 44.5zM1007 62q0 -31 -23 -53.5t-55 -22.5h-774q-32 0 -55 22.5t-23 53.5
v455h930v-455zM1007 593h-930v76q0 31 23 53t55 22h155v-38q0 -15 11 -26t27.5 -11t27.5 11t11 26v38h310v-38q0 -15 11 -26t27.5 -11t27.5 11t11 26v38h155q32 0 55 -22t23 -53v-76zM271 115h78q16 0 27 14.5t11 35t-11 35t-27 14.5h-78q-16 0 -27.5 -14.5t-11.5 -35
t11.5 -35t27.5 -14.5zM736 267h77q16 0 27.5 14t11.5 35t-11.5 35t-27.5 14h-77q-17 0 -28 -14t-11 -35t11 -35t28 -14zM271 267h78q16 0 27 14t11 35t-11 35t-27 14h-78q-16 0 -27.5 -14t-11.5 -35t11.5 -35t27.5 -14zM736 115h77q16 0 27.5 14.5t11.5 35t-11.5 35
t-27.5 14.5h-77q-17 0 -28 -14.5t-11 -35t11 -35t28 -14.5z" />
    <glyph glyph-name="uniE612" unicode="&#xe612;" 
d="M512 811q116 0 214 -57.5t155.5 -155.5t57.5 -214t-57.5 -214t-155.5 -155.5t-214 -57.5t-214 57.5t-155.5 155.5t-57.5 214t57.5 214t155.5 155.5t214 57.5zM725 384h-213v299q0 18 -12.5 30t-30 12t-30 -12t-12.5 -30v-342q0 -18 12.5 -30.5t29.5 -12.5h1l1 1h254
q18 0 30.5 12.5t12.5 30t-12.5 30t-30.5 12.5zM512 896q-104 0 -199 -40.5t-163.5 -109t-109 -163.5t-40.5 -199t40.5 -199t109 -163.5t163.5 -109t199 -40.5t199 40.5t163.5 109t109 163.5t40.5 199t-40.5 199t-109 163.5t-163.5 109t-199 40.5z" />
    <glyph glyph-name="uniE613" unicode="&#xe613;" horiz-adv-x="1026" 
d="M1018 -121q-7 -7 -16.5 -7t-16.5 7l-123 123q18 15 33 33l123 -123q7 -7 7 -16.5t-7 -16.5zM662 -25q-108 0 -184 76t-76 183.5t76 184t184 76.5t184 -76.5t76 -184t-76 -183.5t-184 -76zM662 447q-88 0 -150.5 -62t-62.5 -150t62.5 -150.5t150.5 -62.5t150.5 62.5
t62.5 150.5t-62.5 150t-150.5 62zM497 235q0 11 1 23h188v-47h-188q-1 12 -1 24zM662 400q10 0 24 -2v-45h-140q49 47 116 47zM165 211v47h191q-1 -16 -1 -23t1 -24h-191v0zM378 353h-213v47h238q-15 -24 -25 -47zM165 636h237v47h-237v-47zM165 495h237v47h-237v-47z
M804 542h-189q-39 0 -67 27.5t-28 66.5v213h-425q-20 0 -34 -14t-14 -33v-709q0 -19 14 -33t34 -14h325q21 -27 46 -47h-371q-40 0 -67.5 27.5t-27.5 66.5v709q0 39 27.5 66.5t67.5 27.5h457l292 -314l-1 -8l8 -9v-89q-23 18 -47 31v35zM567 810v-174q0 -19 14 -33t34 -14
h159z" />
    <glyph glyph-name="uniE614" unicode="&#xe614;" 
d="M813 -127h-658q-41 0 -69.5 25t-28.5 61v851q0 35 28.5 60.5t69.5 25.5h523l233 -188v-749q0 -36 -28.5 -61t-69.5 -25zM155 833q-14 0 -24 -7t-10 -16v-851q0 -9 10 -16t24 -7h658q14 0 24 7t10 16v708h-180v157l-12 9h-500zM769 534q0 -7 -6 -13t-14 -6h-282
q-8 0 -13.5 6t-5.5 13.5t5.5 13t13.5 5.5h282q8 0 14 -5.5t6 -13.5zM327 440h-49q-30 0 -51 20.5t-21 50.5v47q0 29 21 50t51 21h49q30 0 51 -21t21 -50v-47q0 -30 -21 -50.5t-51 -20.5zM361 558q0 14 -10 23.5t-24 9.5h-49q-14 0 -24 -9.5t-10 -23.5v-47q0 -14 10 -24
t24 -10h49q14 0 24 10t10 24v47zM239 372h507q8 0 13.5 -5.5t5.5 -13.5t-5.5 -13.5t-13.5 -5.5h-507q-8 0 -14 5.5t-6 13.5t6 13.5t14 5.5zM239 247h507q8 0 13.5 -5.5t5.5 -13.5t-5.5 -13.5t-13.5 -5.5h-507q-8 0 -14 5.5t-6 13.5t6 13.5t14 5.5zM239 116h282
q8 0 13.5 -5.5t5.5 -13.5t-5.5 -13.5t-13.5 -5.5h-282q-8 0 -14 5.5t-6 13.5t6 13.5t14 5.5z" />
    <glyph glyph-name="uniE615" unicode="&#xe615;" 
d="M770 733l-3 3q-56 55 -128.5 85t-153 30t-153 -30t-127.5 -85l-4 -4q-55 -55 -85.5 -127t-30.5 -152t30.5 -152.5t85.5 -127.5l3 -3l282 -280l281 280l3 3q55 55 85.5 127.5t30.5 152.5t-30.5 152.5t-85.5 127.5zM486 340q-58 0 -99 40.5t-41 98.5q0 47 28 85
q42 54 112 54q58 0 99 -40.5t41 -98.5t-41 -98.5t-99 -40.5z" />
    <glyph glyph-name="uniE616" unicode="&#xe616;" horiz-adv-x="1076" 
d="M599 297q93 32 151 111.5t58 179.5q0 128 -90 218t-218 90t-218.5 -90t-90.5 -218q0 -102 60.5 -183t155.5 -110q-157 -33 -269 -149t-138 -274h63q30 160 156.5 266t292.5 106q126 0 234 -65h105q-110 94 -252 118zM499.5 342q-102.5 0 -174.5 72t-72 174t72 174.5
t174.5 72.5t175 -72.5t72.5 -174.5t-72.5 -174t-175 -72zM768 28h307v-52h-307v52zM768 -77h307v-51h-307v51zM768 132h307v-51h-307v51z" />
    <glyph glyph-name="uniE617" unicode="&#xe617;" horiz-adv-x="2100" 
d="M1732 788h52q11 0 18.5 8t7.5 19v53q0 12 -7.5 19.5t-18.5 7.5h-52q-11 0 -19 -7.5t-8 -19.5v-53q0 -11 8 -19t19 -8zM2046 842h-183v-54q0 -22 -15.5 -38t-37.5 -16h-105q-22 0 -37 16t-15 38v54h-263v-54q0 -22 -15 -38t-37 -16h-105q-22 0 -37 16t-15 38v54h-263v-54
q0 -22 -15 -38t-37 -16h-105q-22 0 -37.5 16t-15.5 38v54h-262v-54q0 -22 -15.5 -38t-36.5 -16h-105q-22 0 -37.5 16t-15.5 38v54h-184q-21 0 -36.5 -16t-15.5 -38v-860q0 -23 15.5 -38.5t36.5 -15.5h1994q22 0 37.5 15.5t15.5 38.5v860q0 22 -15.5 38t-37.5 16zM2043 -60
h-1990v752h1990v-752zM1262 788h52q11 0 19 8t8 19v53q0 12 -8 19.5t-19 7.5h-52q-11 0 -18.5 -7.5t-7.5 -19.5v-53q0 -11 7.5 -19t18.5 -8zM787 780h52q11 0 19 8t8 19v53q0 12 -8 19.5t-19 7.5h-52q-11 0 -18.5 -7.5t-7.5 -19.5v-53q0 -11 7.5 -19t18.5 -8zM318 780h52
q11 0 18.5 8t7.5 19v53q0 12 -7.5 19.5t-18.5 7.5h-52q-11 0 -19 -7.5t-8 -19.5v-53q0 -11 8 -19t19 -8z" />
    <glyph glyph-name="uniE618" unicode="&#xe618;" 
d="M652 -111q-113 0 -237 95t-212 250q-76 131 -101.5 262t3 230t105.5 143q51 29 116 26q5 1 9 1h1h1q52 0 94.5 -57t53.5 -143q7 -56 -3 -103.5t-35 -76.5q-27 -31 -65 -32q-2 0 -4 -2q-3 -4 0 -18q21 -52 50 -103q32 -55 70 -104q0 -1 1 -1q4 -5 8 -5q7 0 15 5
q26 35 78 35q72 0 149 -60q67 -52 93 -115.5t1 -108.5q-4 -8 -6 -11q-37 -56 -81 -81q-46 -26 -104 -26v0zM600 234q-25 0 -33 -13q-2 -3 -5 -6q-24 -21 -55 -21q-27 0 -48 21l-4 4q-42 54 -77 114q-31 55 -55 113q-1 2 -1 4q-9 43 12 68q19 23 47 23q12 0 22 12
q17 19 23.5 56t1.5 80q-8 62 -36 106t-55 44h-4q-4 -1 -7 -1q-49 3 -87 -18q-62 -35 -82 -123t5 -204.5t91 -230.5q79 -140 191 -228.5t208 -88.5q42 0 76 19q38 22 62 64q4 6 5 9q12 22 -10.5 67t-71.5 82q-61 48 -113 48zM690 425q-2 0 -5 1q-12 2 -18.5 11.5t-4.5 21.5
q3 17 -7 31.5t-28 17.5q-11 2 -18 12t-5 21.5t12 18t22 4.5q41 -7 64.5 -41t16.5 -74q-2 -11 -10 -17.5t-19 -6.5zM788 427q-3 0 -5 1q-12 2 -19 11.5t-5 21.5q9 48 -19 88t-76 49q-12 2 -18.5 11.5t-4.5 21t12 18.5t21 5q72 -13 114 -72.5t28 -130.5q-2 -11 -10 -17.5
t-18 -6.5zM900 396h-5q-12 3 -19 12.5t-5 21.5q19 99 -39 181.5t-158 100.5q-12 2 -18.5 12t-4.5 21.5t12 18t22 4.5q123 -22 194.5 -124t48.5 -225q-2 -10 -10 -16.5t-18 -6.5z" />
    <glyph glyph-name="uniE619" unicode="&#xe619;" horiz-adv-x="1076" 
d="M768 105q0 -64 -45 -109t-108 -45h-410q-64 0 -109 45t-45 109v410q0 63 45 108t109 45h205v26v25h-205q-85 0 -145 -59.5t-60 -144.5v-410q0 -85 60 -145t145 -60h410q84 0 144 60t60 145v154q-26 2 -51 6v-160zM879 596h-88v123q0 9 -6 15t-14.5 6t-14.5 -6t-6 -15
v-144q0 -8 6 -14t15 -6h108q8 0 14 6t6 14.5t-6 14.5t-14 6zM767 896q-116 0 -198.5 -82t-82.5 -198q0 -68 31 -128q-4 2 -8 2q-13 0 -24 -11q-6 -5 -21 -20q-17 -16 -30 -29l-38 -40l-58 66q-13 13 -17 20q-10 10 -26 16t-27 -8q-10 -15 -5 -29t11 -22l18 -19
q11 -13 30 -36q18 -21 40 -46l-1 -28h-83q-11 0 -19 -9.5t-8 -20.5t7.5 -19t19.5 -8h83v-48h-83q-11 0 -19 -7.5t-8 -19.5q-1 -11 7 -18.5t20 -7.5h83v-27q1 -19 11 -26.5t24 -7.5q15 -1 24 10.5t9 23.5v27h86q12 0 20 6.5t7 19.5q0 29 -34 29h-78l1 46l79 1q17 -1 24.5 7.5
t7.5 21.5q0 10 -8 19t-25 9h-80v26q21 22 38 42q16 17 30 33q14 17 22 24q14 14 17 26q39 -56 99.5 -88.5t131.5 -32.5q116 0 198 82.5t82 198.5t-82 198t-198 82zM766.5 382q-96.5 0 -165 68.5t-68.5 165t68.5 165t165 68.5t165 -68.5t68.5 -165t-68.5 -165t-165 -68.5z
" />
    <glyph glyph-name="uniE61A" unicode="&#xe61a;" horiz-adv-x="1145" 
d="M623 -127q-166 0 -299 93t-189 242h-135l153 186l154 -186h-111q54 -125 169.5 -202.5t257.5 -77.5q94 0 180 36.5t148 97.5t98.5 145.5t36.5 177t-36.5 177t-98.5 145.5t-148 97t-180 36q-107 0 -201 -45t-159 -123h-70q71 103 184.5 163.5t245.5 60.5
q105 0 201.5 -40.5t166 -109t111 -163.5t41.5 -199t-41.5 -198.5t-111 -163t-166 -109t-201.5 -40.5zM839 414v-78h-160v-37h160v-77h-160v-79h-80v79h-161v77h161v37h-161v78h151l-167 161l56 54l161 -154l160 154l56 -54l-166 -161h150z" />
    <glyph glyph-name="uniE61B" unicode="&#xe61b;" 
d="M892 48h-760q-41 0 -70.5 31t-29.5 75v507q0 44 29.5 75t70.5 31h760q42 0 71 -31t29 -75v-507q0 -44 -29 -75t-71 -31zM952 632q0 38 -25.5 65.5t-62.5 27.5h-704q-36 0 -62 -27.5t-26 -65.5v-34h880v34zM72 471v-287q0 -39 26 -66.5t62 -27.5h704q37 0 62.5 27.5
t25.5 66.5v287h-880zM652 154l60 127h200l-60 -127h-200z" />
    <glyph glyph-name="uniE61C" unicode="&#xe61c;" 
d="M558 851q-148 0 -267.5 -84.5t-169.5 -220.5h-121l137 -169l138 169h-99q48 114 151.5 184.5t230.5 70.5q113 0 208.5 -56t151 -151.5t55.5 -208t-55.5 -208t-151 -151.5t-208.5 -56q-96 0 -180 41t-142 113h-63q64 -94 165.5 -149t219.5 -55q95 0 181 37t148.5 99
t99.5 148.5t37 181t-37 181t-99.5 148.5t-148.5 99t-181 37zM592 401v272h-66v-338h224v66h-158z" />
    <glyph glyph-name="uniE61D" unicode="&#xe61d;" 
d="M843 439h-607v160q0 67 40.5 125.5t105 92t134.5 33.5q69 0 128.5 -39.5t94 -102.5t34.5 -132q0 -9 6.5 -16t16.5 -7t16.5 7t6.5 16q0 81 -40.5 155t-111 119.5t-151.5 45.5q-83 0 -158 -39.5t-122 -108.5t-47 -149v-160q-38 0 -65.5 -27t-27.5 -65v-320q0 -37 27.5 -64
t65.5 -27h654q38 0 65.5 27t27.5 64v320q0 38 -27.5 65t-65.5 27zM889 27q0 -18 -13.5 -31.5t-32.5 -13.5h-654q-19 0 -32.5 13.5t-13.5 31.5v320q0 19 13.5 32.5t32.5 13.5h654q19 0 32.5 -13.5t13.5 -32.5v-320zM516 302q-19 0 -33 -13.5t-14 -32.5q0 -26 24 -40v-74
q0 -14 7.5 -41.5t15.5 -27.5t15.5 27.5t7.5 41.5v74q24 14 24 40q0 19 -14 32.5t-33 13.5z" />
    <glyph glyph-name="uniE61E" unicode="&#xe61e;" 
d="M934 79q-2 57 -27.5 108t-68.5 88v187q0 98 -63 174q-53 64 -133 88q-7 46 -43 77t-83.5 31t-83 -31t-42.5 -77q-80 -24 -134 -88q-62 -76 -62 -174v-187q-44 -37 -69 -88t-28 -108l-1 -32h98v-1h170q14 -44 49.5 -74t81.5 -35v-1h24q52 0 93 31t56 79h170v1h98zM519 -3
h-7q-26 0 -48 13t-34 36h172q-13 -23 -35 -36t-48 -13zM777 108v-1h-522v1h-93q16 79 81 128l12 9v217q0 75 48 134t122 74l24 6v29q0 27 19.5 46.5t47 19.5t47.5 -19.5t20 -46.5v-29l24 -6q74 -15 122 -74t48 -134v-217l12 -9q65 -49 80 -128h-92z" />
    <glyph glyph-name="uniE61F" unicode="&#xe61f;" 
d="M892 716l-135 132q-16 16 -39 16h-535q-23 0 -39 -16t-16 -39v-756q0 -23 17 -40l94 -93q16 -16 38.5 -16t38.5 16l97 96l-33 -1l100 -96q16 -15 38 -15t39 15l100 96h-34l101 -96q16 -15 38 -15t39 15l90 87q17 16 17 39v632q0 23 -16 39zM858 683q2 -2 2 -6v-632
q0 -3 -2 -5l-91 -87q-2 -2 -5 -2t-5 2l-100 96l-17 16l-17 -16l-100 -96q-5 -5 -10 0l-100 96l-17 16l-17 -16l-96 -96q-5 -5 -10 0l-95 94q-2 2 -2 6v756q0 8 7 8h535q3 0 5 -2zM301 541h215q10 0 17 7t7 16.5t-7 16.5t-17 7h-215q-10 0 -17 -7t-7 -16.5t7 -16.5t17 -7z
M279 349h431q10 0 17 7t7 16.5t-7 16.5t-17 7h-431q-10 0 -17 -7t-7 -16.5t7 -16.5t17 -7zM279 221h431q10 0 17 7t7 16.5t-7 16.5t-17 7h-431q-10 0 -17 -7t-7 -16.5t7 -16.5t17 -7zM686 829v-158q0 -9 7 -16t17 -7h113q10 0 17 7t7 16.5t-7 16.5t-17 7h-113l24 -24v158
q0 10 -7 16.5t-17 6.5t-17 -6.5t-7 -16.5z" />
    <glyph glyph-name="uniE620" unicode="&#xe620;" horiz-adv-x="1025" 
d="M1001 -212h-140q-10 0 -16.5 7t-6.5 16.5t6.5 16.5t16.5 7h116v116q0 10 7 16.5t16.5 6.5t16.5 -6.5t7 -16.5v-140q0 -9 -7 -16t-16 -7zM1001 67q-10 0 -17 7t-7 17v139q0 10 7 16.5t16.5 6.5t16.5 -6.5t7 -16.5v-139q0 -10 -7 -17t-16 -7zM1001 347q-10 0 -17 6.5
t-7 16.5v139q0 10 7 17t16.5 7t16.5 -7t7 -17v-139q0 -10 -7 -16.5t-16 -6.5zM1001 626q-10 0 -17 6.5t-7 16.5v116h-116q-10 0 -16.5 7t-6.5 16.5t6.5 16.5t16.5 7h140q9 0 16 -7t7 -16v-140q0 -10 -7 -16.5t-16 -6.5zM721 -212h-139q-10 0 -16.5 7t-6.5 16.5t6.5 16.5
t16.5 7h139q10 0 17 -7t7 -16.5t-7 -16.5t-17 -7zM721 765h-139q-10 0 -16.5 7t-6.5 16.5t6.5 16.5t16.5 7h139q10 0 17 -7t7 -16.5t-7 -16.5t-17 -7zM695 347q20 0 33.5 -14t13.5 -33t-13.5 -33t-33.5 -14h-139v-139q0 -19 -14 -33t-33 -14t-32.5 14t-13.5 33v139h-140
q-19 0 -33 14t-14 33t14 33t33 14h140v139q0 19 13.5 33t32.5 14t33 -14t14 -33v-139h139zM442 765h-139q-10 0 -17 7t-7 16.5t7 16.5t17 7h139q10 0 16.5 -7t6.5 -16.5t-6.5 -16.5t-16.5 -7zM163 -212h-140q-9 0 -16 7t-7 16v140q0 10 7 16.5t16.5 6.5t16.5 -6.5t7 -16.5
v-116h116q10 0 16.5 -7t6.5 -16.5t-6.5 -16.5t-16.5 -7zM163 765h-116v-116q0 -10 -7 -16.5t-16.5 -6.5t-16.5 6.5t-7 16.5v140q0 9 7 16t16 7h140q10 0 16.5 -7t6.5 -16.5t-6.5 -16.5t-16.5 -7zM23 533q10 0 17 -7t7 -17v-139q0 -10 -7 -16.5t-16.5 -6.5t-16.5 6.5t-7 16.5
v139q0 10 7 17t16 7zM23 253q10 0 17 -6.5t7 -16.5v-139q0 -10 -7 -17t-16.5 -7t-16.5 7t-7 17v139q0 10 7 16.5t16 6.5zM303 -165h139q10 0 16.5 -7t6.5 -16.5t-6.5 -16.5t-16.5 -7h-139q-10 0 -17 7t-7 16.5t7 16.5t17 7zM303 -165z" />
    <glyph glyph-name="uniE621" unicode="&#xe621;" 
d="M502 586q55 0 102 -24.5t79 -66.5l28 -8q-32 54 -87.5 86t-121.5 32q-63 0 -118 -30l28 -8q43 19 90 19zM650 598l15 -12l5 19l18 10l-18 10l-5 19l-15 -12l-21 1l8 -18l-8 -18zM378 641l-17 11l-3 -20l-17 -12l18 -8l6 -19l15 14l20 1l-9 18l7 19zM529 669l-12 15
l-10 -18l-19 -6l14 -14v-20l18 10l20 -6l-3 20l12 16zM747 546l-17 12l-2 -20l-16 -12l18 -9l7 -19l14 14h21l-10 18l5 19zM967 398l-849 228q-16 4 -30 -4t-18 -24l-61 -227q-4 -15 4 -29t24 -19l849 -227q16 -5 30 3.5t18 23.5l61 227q4 16 -4 30t-24 18zM973 346
l-55 -208q-3 -12 -13.5 -18t-22.5 -3l-831 223q-11 3 -17 13.5t-3 22.5l55 208q3 11 13.5 17.5t22.5 2.5l831 -222q11 -4 17.5 -14.5t2.5 -21.5zM502 713q121 0 215.5 -73.5t124.5 -187.5l22 -6q-30 124 -130.5 205t-231.5 81q-78 0 -148 -30.5t-122 -85.5l21 -6
q49 48 113.5 75.5t135.5 27.5zM592 154q-43 -18 -90 -18q-54 0 -101.5 24.5t-79.5 66.5l-28 8q32 -55 88 -87t121 -32q63 0 118 31zM382 114l-15 12l-5 -19l-18 -10l18 -10l5 -19l15 13l20 -2l-7 18l7 18zM502 53l12 -15l9 18l20 6l-15 14v20l-18 -10l-19 6l3 -20l-12 -16z
M255 176l16 -12l4 19l16 10l-17 11l-6 19l-15 -13l-20 2l9 -19l-7 -18zM502 8q-121 0 -215 74t-125 188l-21 5q29 -124 130 -205t231 -81q79 0 149 31t121 86l-21 6q-49 -49 -113 -76.5t-136 -27.5zM643 80l16 -11l4 20l16 12l-17 9l-6 19l-15 -15l-20 -1l9 -17l-6 -19z
M359 482q-31 9 -54.5 15t-40 10t-26.5 6l-15 3l5 16q9 -4 29.5 -10t46.5 -13t44.5 -11t29.5 -6q-3 -5 -4 -9t-3 -11l-16 -60q-2 -7 -3 -12.5t-2 -11.5l-15 5l6 22l-116 31l-17 -62q-2 -9 0.5 -13t12.5 -8q11 -3 19 -5.5t16.5 -4.5t19 -4.5t25.5 -6.5q13 -3 21.5 -3.5t14 1.5
t8.5 6.5t6 12.5q4 -4 7 -6t7 -3q-5 -9 -9.5 -15t-10.5 -9t-14.5 -3t-21.5 3q-4 0 -11 2t-15 4l-18 5q-10 2 -19.5 5t-18 5.5t-15.5 4.5q-9 2 -13.5 5t-6.5 6.5t-1.5 9t2.5 12.5l18 66q3 12 4.5 19t2.5 12q5 -2 8 -3t7 -3q4 -1 4.5 -3.5t-4.5 -3.5q-1 0 -2.5 -3t-2.5 -9
l116 -31zM472 310q-27 2 -45 2h-28v8q0 5 -2 10q9 -2 18 -3.5t19 -2.5h18q10 -1 22 -1q-2 -5 -2 -13zM439 408q-4 1 -9 1h-7v9q0 5 -2 8q7 0 20.5 12.5t34.5 42.5q3 -4 6.5 -6.5t6.5 -4.5t3 -3.5t-4 -1.5l-4 -2q-2 -1 -7 -5.5t-14 -13.5t-23 -24l32 -7l12 12q4 4 7 9
q2 -4 5.5 -8t5.5 -6q5 -4 -2 -4q-2 0 -4.5 -1.5t-9 -6.5t-19 -15.5t-34.5 -29.5l45 -6q-4 -6 -4 -12l-42 6q-14 2 -22 1q2 8 0 15q6 0 11.5 2.5t10.5 7.5q10 8 17.5 14.5t13.5 12.5zM491 288l-5 -17l-15 4q3 8 6 17t6 17l6 24q1 2 1.5 5.5t1.5 7.5t1.5 7t0.5 5q4 -2 8 -3.5
t9 -3t12.5 -3.5t18.5 -5l20 -5q8 -2 13 -3.5t9 -2t8 -1.5q-2 -3 -4.5 -10.5t-3.5 -13.5l-7 -25q-2 -6 -3.5 -14.5t-3.5 -17.5l-14 4l4 15zM563 280l11 43l-69 19l-11 -43zM558 375q17 -4 29 -6.5t22 -4.5l-4 -15q-10 4 -23.5 8t-32.5 9.5t-33 8.5t-24 5l4 14q9 -3 20.5 -6.5
t28.5 -8.5l9 34q-10 3 -17.5 4.5t-14 3t-12 3t-11.5 2.5l4 15q6 -2 11.5 -4t11.5 -4t13.5 -4t17.5 -5l1 7q3 10 4.5 18.5t2.5 10.5q4 -2 9 -4l7 -2q3 0 3 -1.5t-2 -1.5t-3.5 -2t-1.5 -4l-7 -25q10 -2 18 -4t14.5 -3.5t12.5 -3t12 -1.5l-4 -16q-6 3 -11.5 4.5t-12 4
t-14.5 4.5t-18 5zM694 213l-15 4q4 8 6.5 16t4.5 15l12 47l4 14q1 6 1 11q5 -2 10 -3.5t11 -3t13 -3.5t17 -5q9 -2 16 -4t12.5 -3.5t10.5 -2.5t11 -2q-3 -7 -4.5 -13t-3.5 -12l-15 -57q-2 -6 -4 -9.5t-6 -5t-10 -1t-15 3.5q1 3 1 7.5t-2 8.5q6 -3 10 -4t7 -0.5t4 2t2 4.5
l4 14l-72 20zM790 285l-71 20l-5 -18l72 -19zM783 258l-72 19l-4 -17l72 -19zM769 373q-9 2 -16.5 4t-13.5 3.5t-11 2.5l-10 2l4 12q4 -2 9 -3.5t11 -3t13 -3.5t16 -5q2 6 3 12t1 10q4 -2 8 -3.5t8 -2.5q3 -1 3 -2t-2 -2q-4 -2 -5 -8l-2 -7q9 -3 16 -4.5t13 -3t11 -2.5
l10 -2l-3 -13q-5 2 -10 3.5t-10.5 3t-13 4t-16.5 4.5l-4 -16l13 -4q6 -1 11 -2.5t10 -2.5l10 -2l-4 -12q-4 2 -8.5 3.5t-10 3t-11.5 2.5l-13 4l-4 -16l21 -6q9 -2 16 -3.5t12.5 -3t12.5 -2.5l-3 -13q-7 2 -13 4l-13 5q-8 2 -18 4l-23 6l-24 7q-10 3 -17.5 4.5t-13.5 3
t-13 2.5l3 13q6 -2 11.5 -4t12.5 -4t15 -4l21 -5l4 16q-13 3 -24 5.5t-20 4.5l3 12q9 -3 19.5 -6t23.5 -7zM681 297q-5 -5 -11 -11.5t-13.5 -14t-15.5 -16.5t-15 -18q-3 4 -6 6.5t-7 5.5q19 14 33 29t25 32q2 -3 4.5 -7t5.5 -6zM669 332q-5 9 -12 17.5t-15 16.5l10 9
q8 -9 15.5 -18t13.5 -17zM694 379q-6 10 -12 18.5t-14 15.5l10 9q7 -9 14 -17.5t13 -16.5z" />
    <glyph glyph-name="uniE622" unicode="&#xe622;" 
d="M507 603q55 0 103 -24.5t80 -67.5l29 -8q-33 55 -89.5 87.5t-122.5 32.5q-64 0 -120 -31l29 -8q44 19 91 19zM656 616l16 -13l5 20l18 10l-18 10l-5 20l-16 -13l-20 1l8 -18l-8 -18zM381 659l-16 12l-4 -20l-17 -13l18 -9l6 -19l15 15l21 1l-9 18l6 19zM534 687l-12 16
l-10 -18l-19 -7l14 -14v-20l19 10l19 -6l-3 20l12 17zM755 563l-17 12l-2 -20l-17 -12l19 -9l7 -19l14 14h21l-10 18l5 19zM978 413l-860 231q-16 4 -30 -4t-18 -24l-62 -230q-4 -16 4 -30t24 -18l860 -231q16 -4 30 4t18 24l62 230q4 16 -4 30t-24 18zM984 360l-56 -210
q-3 -12 -14 -18t-22 -3l-841 225q-12 4 -18 14.5t-3 22.5l56 210q3 12 14 18t23 3l840 -225q12 -4 18 -14.5t3 -22.5zM507 732q122 0 217.5 -74.5t126.5 -189.5l22 -6q-30 126 -132 208t-234 82q-79 0 -150 -31.5t-124 -87.5l22 -5q50 49 115 76.5t137 27.5zM598 167
q-43 -19 -91 -19q-55 0 -103 24.5t-80 67.5l-29 8q33 -55 89.5 -87.5t122.5 -32.5q64 0 120 31zM386 126l-16 12l-5 -19l-18 -10l18 -11l5 -19l16 13l20 -2l-8 19l8 18zM507 65l12 -16l9 18l20 7l-14 13v20l-19 -9l-19 5l3 -19l-12 -17zM257 189l16 -13l4 20l17 10l-18 11
l-6 19l-15 -13l-20 2l9 -19l-7 -19zM507 19q-122 0 -217.5 74.5t-126.5 189.5l-22 6q30 -126 132 -208t234 -82q80 0 150.5 31.5t123.5 87.5l-22 5q-49 -49 -114.5 -76.5t-137.5 -27.5zM650 92l16 -12l4 20l16 13l-18 8l-6 20l-14 -15l-20 -1l8 -18l-6 -19zM367 387
q-4 17 -11 32.5t-18 33.5l13 7q11 -20 18.5 -35.5t13.5 -30.5zM334 505q-21 5 -37 9t-27 6l4 15q12 -4 28.5 -9t37.5 -11q15 -4 25 -6.5t17 -4.5l13 -2l10 -2l-4 -15q-7 3 -20.5 7t-31.5 8q-4 -6 -8.5 -12t-9.5 -12l-22 -81q-3 -10 -4.5 -18.5t-3.5 -17.5l-17 5
q4 9 6.5 16.5t4.5 17.5l16 60q-14 -12 -30.5 -21.5t-34.5 -18.5q-1 4 -3.5 7.5t-5.5 7.5q15 4 29 11t26.5 16t23 20.5t18.5 24.5zM242 500q-4 15 -9.5 27.5t-11.5 22.5l14 6q6 -11 12 -24t10 -26zM218 392q3 -2 6 -4.5t7 -5.5q10 -10 26 -17.5t35.5 -13.5t40.5 -10t41 -6
q-8 -7 -12 -17q-23 5 -40.5 9.5t-31 8.5t-23.5 8t-17.5 8t-14 9t-12.5 10t-10.5 8t-10 2.5t-12.5 -4t-18 -9.5q-1 6 -3.5 10.5t-5.5 6.5q16 7 26 9t15 2l20 75q-4 2 -9.5 3t-10.5 2t-9 2t-6 1l4 15q5 -2 11.5 -4t12.5 -4t14 -3.5t13 -1.5q-3 -6 -5 -12t-4 -15zM565 363
q0 -13 1 -25.5t5 -24.5t10.5 -24t17.5 -23q-9 -3 -17 -10q-7 14 -12 25.5t-8 22.5t-4.5 20.5t-1.5 19.5q-11 -22 -29 -38.5t-43 -24.5q-1 4 -3 7t-6 7q14 3 25 8.5t19.5 13t15.5 17.5t14 24q6 11 9 20.5t4 19.5q11 -6 16 -7q3 -1 3 -3t-3 -4l-2 -1q-1 -1 -2.5 -3.5
t-3.5 -6.5zM605 424l16 -4q8 -2 14 -2l-30 -44l-10 6l19 30l-58 15q-3 -4 -6.5 -9.5t-7.5 -11.5l-8 -12q-4 -6 -9 -10q-3 3 -6.5 5.5t-7.5 4.5q8 6 16 15t14.5 19.5t12.5 23t11 24.5q5 -3 8 -5t8 -3q2 -1 2.5 -3t-3.5 -3q-2 -1 -3.5 -2.5t-3.5 -4t-5 -7t-6 -11.5zM503 385
q-4 2 -7.5 3t-8 2.5t-10 3t-13 3.5t-13.5 3.5t-10.5 2.5t-8 1.5t-7.5 1.5l3 13q4 -2 7.5 -3.5t8 -2.5t10 -3t13.5 -4l13 -3q6 -2 10.5 -3t8 -1.5t7.5 -0.5zM449 308q-1 -3 -2.5 -5.5t-5.5 -3.5t-10 -0.5t-16 2.5q1 5 1 8.5t-2 8.5q7 -3 11 -4.5t6.5 -1t4 2.5t2.5 5l12 46
q-9 3 -15 4.5t-11 2.5t-9.5 2t-9.5 2l3 13q5 -2 9.5 -3.5t10 -3.5t12.5 -4l17 -4l17 -5q7 -2 12.5 -3t10 -2t10.5 -2l-4 -13q-4 2 -8 3.5t-8.5 3t-10 3t-13.5 3.5zM432 350q-1 0 -3 -1t-5.5 -4t-9.5 -8t-16 -14q-2 3 -4.5 5.5t-5.5 4.5q13 7 21.5 15t13.5 17q3 -3 5.5 -5
t4.5 -3q3 -2 3 -4.5t-4 -2.5zM483 311q-3 10 -5.5 19t-7.5 18l10 5q5 -10 8.5 -19t6.5 -18zM475 460q-15 3 -25.5 5.5t-19.5 3.5l4 15q8 -4 18.5 -7t25.5 -7q3 9 4.5 16.5t1.5 10.5q4 -3 8 -4l8 -2q3 -1 3 -2.5t-3 -1.5q-1 0 -2.5 -2t-2.5 -4l-4 -15q14 -4 24 -6t19 -3
l-4 -14q-8 3 -17.5 6t-23.5 7l-6 -22q12 -4 20.5 -5.5t16.5 -2.5l-4 -14q-8 3 -17.5 6.5t-23.5 7.5q-15 4 -25 6t-18 3l3 14q7 -3 15 -6t19 -6zM731 254q-4 -15 -6 -25t-3 -18l-19 5q3 8 6 17.5t7 24.5l10 35l-61 16l-5 -19l-16 4q2 7 5 15t5 15l14 54q2 6 3 12.5t2 10.5
q8 -3 27 -8.5t49 -14.5l4 17l4 16q2 8 2 15l10 -4q5 -2 8 -3q4 -1 4 -3t-4 -3q-2 -1 -3 -2.5t-2 -5.5l-8 -31q30 -7 48 -11.5t27 -5.5q0 -2 -1.5 -5.5t-2.5 -7.5l-2 -8q-1 -4 -2 -7l-12 -45q-2 -7 -4 -16t-4 -17l-15 4l4 18l-59 16zM746 367l-61 17l-17 -63l61 -16zM744 301
l59 -16l17 62l-59 16z" />
    <glyph glyph-name="uniE623" unicode="&#xe623;" 
d="M64 -91h896v50h-896v-50zM67 241l555 572q15 17 38 17.5t39 -15.5l119 -115q17 -15 17.5 -38t-15.5 -39l-559 -589l-197 -1v200zM290 138l-131 119l-47 -45l2 -129l127 1zM197 297l129 -124l371 403l-118 114zM661 775l-44 -45l119 -115l44 46z" />
    <glyph glyph-name="uniE624" unicode="&#xe624;" 
d="M622 92q-16 0 -26.5 10.5t-10.5 25.5v402q0 16 10.5 26.5t26 10.5t26 -10.5t10.5 -26.5v-402q0 -15 -10.5 -25.5t-25.5 -10.5zM402 92q-15 0 -25.5 10.5t-10.5 25.5v402q0 16 10.5 26.5t26 10.5t26 -10.5t10.5 -26.5v-402q0 -15 -10.5 -25.5t-26.5 -10.5zM987 713h-183
v73q0 46 -31.5 78t-76.5 32h-367q-45 0 -77 -32t-32 -78v-73h-183q-15 0 -26 -10.5t-11 -25.5t11 -26t26 -11h950q15 0 26 11t11 26t-11 25.5t-26 10.5zM293 786q0 15 10.5 26t25.5 11h367q15 0 25 -10.5t10 -26.5v-73h-438v73zM768 -127h-512q-45 0 -77 32t-32 77v549
q0 15 10.5 26t25.5 11t26 -11t11 -26v-549q0 -15 10.5 -25.5t25.5 -10.5h512q15 0 26 10.5t11 25.5v548q0 15 10.5 25.5t25.5 10.5t26 -10.5t11 -25.5v-548q0 -45 -32.5 -77t-77.5 -32z" />
  </font>
</defs>
</svg>
